<?xml version="1.0" encoding="utf-8"?>
<!-- Generator: Adobe Illustrator 21.0.0, SVG Export Plug-In . SVG Version: 6.00 Build 0)  -->
<svg version="1.1" id="Layer_1" xmlns="http://www.w3.org/2000/svg" xmlns:xlink="http://www.w3.org/1999/xlink" x="0px" y="0px"
	 viewBox="0 0 1920 655" style="enable-background:new 0 0 1920 655;" xml:space="preserve">
<style type="text/css">
	.st0{opacity:0.4;fill:#337DF3;}
	.st1{fill:none;}
	.st2{fill:#4961FF;}
	.st3{fill:url(#SVGID_1_);}
	.st4{opacity:0.2;fill:#526EFF;}
	.st5{opacity:0.1;fill:none;stroke:#D0E0EF;stroke-width:2;stroke-miterlimit:10;enable-background:new    ;}
	.st6{opacity:0.1;fill:#D0E0EF;enable-background:new    ;}
	.st7{opacity:0.4;fill:#526EFF;enable-background:new    ;}
	.st8{fill:#2772F2;}
	.st9{opacity:0.15;}
	.st10{fill:url(#SVGID_2_);}
	.st11{opacity:0.1;fill:url(#SVGID_3_);enable-background:new    ;}
</style>
<circle class="st0" cx="1713.4" cy="81" r="8.5"/>
<path class="st1" d="M1957,236.9c-12.8,32.5-28.2,84.6-21.4,146.2c13.9,126.3,106.9,161.9,93.5,213.8
	c-31.3,120.8-576.4,86.4-757.2,75c-86.6-5.5-157.3-12.2-202.5-17c-12.4-0.1-24.9-0.1-37.5,0c-110.5,0.7-216.6,7.9-318,20
	c5.4,34,15.4,115.8-17.8,135.1c-4.4,2.6-13.2,5.9-30.7,12.6c-26.2,10-48.4,16.5-61.5,20.1c0,0-4.9,1.3-9.7,2.6
	c-229.3,59.1-396.6-17.9-396.6-17.9C22.2,746.6-51.2,578.2-80.8,511.9c-6.3-14.1-14.8-28.5-19-48.5
	c-59.1-278.7,107.4-560.7,278-594.9c132.6-26.6,215.4,107.4,503,114.2c21.6,0.5,41.3,0.2,59.4-0.5c42-1.8,75.3-5.8,92.5-8.1
	c3.9-0.5,7.1-1,8.8-1.2c0,0,0.6-0.1,1.2-0.2C1582-150.4,1776-257.5,1893-164C1948.8-119.4,2000.4-18.6,1957,236.9z"/>
<path class="st2" d="M1244,578"/>
<linearGradient id="SVGID_1_" gradientUnits="userSpaceOnUse" x1="2030" y1="202" x2="2030" y2="202" gradientTransform="matrix(1 0 0 1 0 536)">
	<stop  offset="0" style="stop-color:#708AFF"/>
	<stop  offset="1" style="stop-color:#4961FF"/>
</linearGradient>
<path class="st3" d="M2030,738"/>
<ellipse class="st4" cx="1817.4" cy="456.3" rx="12" ry="10.2"/>
<circle class="st5" cx="157.8" cy="686.7" r="14.6"/>
<ellipse class="st6" cx="157.8" cy="362.3" rx="14.7" ry="15.7"/>
<ellipse class="st6" cx="1829.4" cy="113.3" rx="14.7" ry="15.7"/>
<ellipse class="st6" cx="609.3" cy="419.3" rx="14.7" ry="15.7"/>
<circle class="st7" cx="307.7" cy="487.7" r="13.1"/>
<path class="st8" d="M212.1-227.4"/>
<g class="st9">
	
		<linearGradient id="SVGID_2_" gradientUnits="userSpaceOnUse" x1="-375.1117" y1="-634.1329" x2="213.7198" y2="-634.1329" gradientTransform="matrix(0.9999 -1.529391e-02 1.338062e-02 0.8748 -11.2013 740.071)">
		<stop  offset="0" style="stop-color:#FFFFFF"/>
		<stop  offset="0" style="stop-color:#808CF9"/>
		<stop  offset="0" style="stop-color:#1464F0"/>
		<stop  offset="1" style="stop-color:#429CF8"/>
	</linearGradient>
	<path class="st10" d="M146.8,266.1c-24.5,22.9-73.7,42-109.4,42.6l-365.3,5.6c-35.7,0.5-65.3-24.6-65.8-55.8l-2.1-134.4
		c-0.5-31.2,28.4-57.3,64.1-57.8l365.3-5.6c14.4-1.3,37.5-1.6,63.2,6.2c11.4,3.4,78.4,25,94,85.5
		C201.4,193.5,184.3,237.2,146.8,266.1z"/>
</g>
<linearGradient id="SVGID_3_" gradientUnits="userSpaceOnUse" x1="1695.8163" y1="1122.8823" x2="1862.1167" y2="1122.8823" gradientTransform="matrix(-1 1.026528e-03 1.026528e-03 1 3663.7419 -927.226)">
	<stop  offset="0" style="stop-color:#FFFFFF"/>
	<stop  offset="0" style="stop-color:#808CF9"/>
	<stop  offset="0" style="stop-color:#1464F0"/>
	<stop  offset="1" style="stop-color:#429CF8"/>
</linearGradient>
<path class="st11" d="M1844.8,151.3l82-0.1c23.3,0,42.2,18.9,42.2,42.2l0,8c0,23.3-18.9,42.2-42.2,42.2l-81.9,0.1
	c-23.3,0-42.2-18.9-42.2-42.2l0-8C1802.7,170.3,1821.5,151.3,1844.8,151.3z"/>
</svg>
