<?xml version="1.0" encoding="utf-8"?>
<!-- Generator: Adobe Illustrator 21.0.0, SVG Export Plug-In . SVG Version: 6.00 Build 0)  -->
<svg version="1.1" id="Layer_1" xmlns="http://www.w3.org/2000/svg" xmlns:xlink="http://www.w3.org/1999/xlink" x="0px" y="0px"
	 viewBox="0 0 1366 599" style="enable-background:new 0 0 1366 599;" xml:space="preserve">
<style type="text/css">
	.st0{fill:#4355FF;}
	.st1{fill:#4961FF;}
	.st2{fill:#526EFF;}
	.st3{fill:#4A5EFF;}
	.st4{fill:#3B4BFF;}
	.st5{fill:none;}
	.st6{fill:#4562DB;}
	.st7{fill:none;stroke:#3B4BFF;stroke-width:2;stroke-miterlimit:10;}
	.st8{fill:none;stroke:#000000;stroke-width:2;stroke-miterlimit:10;}
</style>
<g>
	<path class="st0" d="M-67-11"/>
	<path class="st1" d="M0.1,51.6C0.1,186.4,0,321.2,0,456c28-23.7,71.2-52.3,126-56c62.3-4.3,95.3,26.6,157,44.3
		c95.6,27.4,145.8-9.5,242-17.3c152.2-12.3,212.7,64.9,366,109c105.3,30.3,260.5,46.9,474.9-19.4v-465L0.1,51.6L0.1,51.6z"/>
	<path class="st2" d="M71,388.7c3.4-1.1,37.2-12,77-12.5c79.7-1,99.7,40.6,174.7,55.2c112.7,21.9,186.8-48.7,297.2-20.7
		c25.8,6.5,55.2,16.2,55.2,16.2c59,20,87.2,39.4,207.2,73.1c33.3,9.3,141.9,39,264.3,34.3c3.7-0.1,6.9-0.3,7.6-0.3
		c70.7-3.5,141.1-16.2,211.7-38.4V2H0c0,141.7,0,283.4,0,425.1C14.1,415.8,37.6,399.7,71,388.7z"/>
	<path class="st3" d="M1366,0H425.1C505.3,29.9,569.3,56.4,613,75c80.3,34.3,116.7,52.8,178,63c50.9,8.5,63.4,2,129,4
		c189.3,5.7,243.7,64.2,348,30c24.7-8.1,61.7-24.5,102-62C1368.7,73.3,1367.3,36.7,1366,0z"/>
	<path class="st0" d="M1116,123.4c67,12.6,100,22.3,134,3.6c18.5-10.2,27.1-23.2,61.3-41.5c21.9-11.7,41.3-18.6,54.6-22.7V0H549.2
		C625.4,55.5,691.9,76.7,738,86c78,15.7,94-3.6,222,14C1077.5,116.2,1116,123.4,1116,123.4z"/>
	<path class="st4" d="M1122.9,55.8C1187.2,46.1,1250,27.2,1308,0H690.7c48.7,19.9,90.8,32,121.7,39.5
		C851.7,49.1,980.9,77.2,1122.9,55.8z"/>
</g>
<circle class="st5" cx="1060" cy="272" r="10"/>
<circle class="st5" cx="990.7" cy="118.7" r="8.7"/>
<circle class="st5" cx="1214" cy="200" r="9"/>
<circle class="st5" cx="1153" cy="149" r="9"/>
<circle class="st2" cx="338.2" cy="473" r="12.3"/>
<circle class="st6" cx="341.5" cy="473" r="8.9"/>
<circle class="st7" cx="808.5" cy="292" r="7.5"/>
<circle class="st8" cx="778.8" cy="669.8" r="8.8"/>
<circle class="st0" cx="1145" cy="248" r="11"/>
</svg>
