<?xml version="1.0" encoding="utf-8"?>
<!-- Generator: Adobe Illustrator 21.0.0, SVG Export Plug-In . SVG Version: 6.00 Build 0)  -->
<svg version="1.1" id="Layer_1" xmlns="http://www.w3.org/2000/svg" xmlns:xlink="http://www.w3.org/1999/xlink" x="0px" y="0px"
	 viewBox="0 0 1230 599" style="enable-background:new 0 0 1230 599;" xml:space="preserve">
<style type="text/css">
	.st0{fill:none;}
	.st1{fill:#59FFE7;}
	.st2{fill:#516CF9;}
</style>
<circle class="st0" cx="1060" cy="272" r="10"/>
<circle class="st0" cx="990.7" cy="118.7" r="8.7"/>
<circle class="st0" cx="1214" cy="200" r="9"/>
<circle class="st0" cx="1153" cy="149" r="9"/>
<path class="st1" d="M962,54"/>
<path class="st2" d="M1298,248.5c-17.8,49.4-52.9,75.5-45,122.5c8.8,52.4,69,68.7,63,104c-4.9,28.8-48,43.6-58,47
	c-79.7,27.3-154.2-19.1-211.6-39.9C816.9,398.7,662.2,650.8,442,560c-77.9-32.1-100.5-81-183-82c-81.5-1-107.5,46-199,44
	c-53.9-1.2-147.3-19.7-172-78c-20.4-48.2,23.7-85.2,60-195.5C-2.6,98.5-40.9,60.2-5,5c68.6-105.4,255.7-37.9,628-36
	c380.7,2,549.5-66.7,630,43C1282.4,52.1,1330.8,157.8,1298,248.5z"/>
</svg>
