<?xml version="1.0" encoding="utf-8"?>
<!-- Generator: Adobe Illustrator 21.0.0, SVG Export Plug-In . SVG Version: 6.00 Build 0)  -->
<svg version="1.1" id="Layer_1" xmlns="http://www.w3.org/2000/svg" xmlns:xlink="http://www.w3.org/1999/xlink" x="0px" y="0px"
	 viewBox="0 0 1366 599" style="enable-background:new 0 0 1366 599;" xml:space="preserve">
<style type="text/css">
	.st0{fill:#4355FF;}
	.st1{fill:#FFFFFF;}
	.st2{fill:#4A5EFF;}
	.st3{fill:#3B4BFF;}
	.st4{fill:none;}
	.st5{fill:#526EFF;}
	.st6{fill:#4562DB;}
	.st7{fill:none;stroke:#3B4BFF;stroke-width:2;stroke-miterlimit:10;}
	.st8{fill:none;stroke:#000000;stroke-width:2;stroke-miterlimit:10;}
	.st9{fill:#4961FF;}
</style>
<g>
	<path class="st0" d="M60.1,924.6c8.5-14.4,13-26.3,15.4-37.2c0,0,16.1-50,8.8-107.5C70.7,674.6-143.1,562.1-130.4,529
		c14.9-38.7,322.6,72.7,349.5,22.9c15.2-28.1-57.4-111.3-334.5-310.9c-72.7-6.7-145.3-13.3-218-20l-173.4,740
		c182.3,42.7,364.5,85.4,546.8,128.1c-7.1-12.2-16.2-30.8-19.5-52.6C12.7,985.7,41.6,955.9,60.1,924.6z"/>
	<path class="st0" d="M247,655"/>
	<path class="st0" d="M-67-11"/>
	<path class="st1" d="M25,394c22-10.6,30.3-14.7,33-16c30-13.9,74.5,0.9,84,4c120.7,39.6,181.1,59.4,222,60
		c107.2,1.4,191.1-77.8,255.9-55.8c5.1,1.7,55.2,19.4,55.2,19.4c59,23.9,87.2,47.1,207.2,87.4c33.3,11.2,141.9,46.7,264.3,41
		c3.7-0.2,6.9-0.4,7.6-0.4c70.7-4.2,141.1-19.4,211.7-45.9v-590.3H0C0,67,0,236.5,0,406C5.7,403.3,14.4,399.1,25,394z"/>
	<path class="st2" d="M1366,0H425.1C526,66.1,633,126.8,755.4,166.6c163.7,53.3,341.5,57.6,508,16.3c34.8-8.6,69.2-19.4,102.7-32.1
		L1366,0L1366,0z"/>
	<path class="st0" d="M1193,119.3c40.3-8.2,79.9-19.5,118.3-33.8c18.5-6.9,36.7-14.5,54.6-22.7V0H549.2
		c53.7,32.1,110.7,60.3,172.5,82.8C871.1,137.3,1036.5,151.1,1193,119.3z"/>
	<path class="st3" d="M1122.9,55.8C1187.2,46.1,1250,27.2,1308,0H690.7C825.3,54.7,977.2,77.8,1122.9,55.8z"/>
</g>
<circle class="st4" cx="1060" cy="272" r="10"/>
<circle class="st4" cx="990.7" cy="118.7" r="8.7"/>
<circle class="st4" cx="1214" cy="200" r="9"/>
<circle class="st4" cx="1153" cy="149" r="9"/>
<circle class="st5" cx="338.2" cy="473" r="12.3"/>
<circle class="st6" cx="341.5" cy="473" r="8.9"/>
<circle class="st7" cx="808.5" cy="292" r="7.5"/>
<circle class="st8" cx="778.8" cy="669.8" r="8.8"/>
<circle class="st0" cx="1145" cy="248" r="11"/>
<path class="st9" d="M-39,218"/>
</svg>
