<?xml version="1.0" encoding="utf-8"?>
<!-- Generator: Adobe Illustrator 21.0.0, SVG Export Plug-In . SVG Version: 6.00 Build 0)  -->
<svg version="1.1" id="Layer_1" xmlns="http://www.w3.org/2000/svg" xmlns:xlink="http://www.w3.org/1999/xlink" x="0px" y="0px"
	 viewBox="0 0 1366 599" style="enable-background:new 0 0 1366 599;" xml:space="preserve">
<style type="text/css">
	.st0{fill:#4961FF;}
	.st1{fill:#526EFF;}
	.st2{fill:#4A5EFF;}
	.st3{fill:#4355FF;}
	.st4{fill:#3B4BFF;}
	.st5{fill:none;}
	.st6{fill:#4562DB;}
</style>
<g>
	<path class="st0" d="M408.4,431.8c2.7,0.6,5.5,1.3,8.1,2C584,475.4,748.4,539.6,923.2,573.8c148.7,29,298.4,23.1,442.8-8.1V-28.6H0
		V427c44.7-13.9,90.9-22,137.5-24.5C229.1,397.3,320.7,410.6,408.4,431.8z"/>
	<path class="st1" d="M0.1,51.6v312.6c47.5-13.4,96.9-19.9,146.3-20.2c87.8-0.6,173.5,16.5,255.5,39.7c2.6,0.7,5,1.5,7.6,2.2
		c156.7,45.1,312.2,106.4,480.1,139.9c159.4,31.8,321.3,25,476.3-9.2v-465H0.1z"/>
	<path class="st0" d="M155.3,175.4c83.8,6.7,163.8,39.4,240.1,80.6c2.4,1.2,4.7,2.6,7.1,3.8c146,80.1,302.6,164.8,463.6,219.8
		c169.7,57.9,334.3,58.1,499.9-4.1v-590.3H0.1V202C50.5,180.1,103.1,171.3,155.3,175.4z"/>
	<path class="st2" d="M1366,0H425.1C526,66.1,633,126.8,755.4,166.6c163.7,53.3,341.5,57.6,508,16.3c34.8-8.6,69.2-19.4,102.7-32.1
		L1366,0L1366,0z"/>
	<path class="st3" d="M1193,119.3c40.3-8.2,79.9-19.5,118.3-33.8c18.5-6.9,36.7-14.5,54.6-22.7V0H549.2
		c53.7,32.1,110.7,60.3,172.5,82.8C871.1,137.3,1036.5,151.1,1193,119.3z"/>
	<path class="st4" d="M1122.9,55.8c64.3-9.7,127.1-28.6,185.1-55.8H690.7C825.3,54.7,977.2,77.8,1122.9,55.8z"/>
</g>
<circle class="st5" cx="1060" cy="272" r="10"/>
<circle class="st5" cx="990.7" cy="118.7" r="8.7"/>
<circle class="st5" cx="1214" cy="200" r="9"/>
<circle class="st5" cx="1153" cy="149" r="9"/>
<circle class="st1" cx="338.2" cy="473" r="12.3"/>
<circle class="st6" cx="341.5" cy="473" r="8.9"/>
</svg>
