<?xml version="1.0" encoding="utf-8"?>
<!-- Generator: Adobe Illustrator 21.0.0, SVG Export Plug-In . SVG Version: 6.00 Build 0)  -->
<svg version="1.1" id="Layer_1" xmlns="http://www.w3.org/2000/svg" xmlns:xlink="http://www.w3.org/1999/xlink" x="0px" y="0px"
	 viewBox="0 0 1920 1080" style="enable-background:new 0 0 1920 1080;" xml:space="preserve">
<style type="text/css">
	.st0{opacity:0.6;fill:url(#SVGID_1_);enable-background:new    ;}
	.st1{fill:#DFDFFD;}
	.st2{fill:#EDF1FC;}
	.st3{opacity:0.5;fill:url(#SVGID_2_);enable-background:new    ;}
	.st4{fill:#526EFF;}
	.st5{fill:url(#SVGID_3_);}
	.st6{fill:#4961FF;}
	.st7{fill:url(#SVGID_4_);}
	.st8{fill:#4562DB;}
	.st9{opacity:0.1;fill:none;stroke:#D0E0EF;stroke-width:2;stroke-miterlimit:10;enable-background:new    ;}
	.st10{opacity:0.1;fill:#D0E0EF;enable-background:new    ;}
	.st11{opacity:0.4;fill:#526EFF;enable-background:new    ;}
	.st12{fill:#2772F2;}
	.st13{opacity:0.3;}
	.st14{fill:url(#SVGID_5_);}
	.st15{opacity:0.1;}
	.st16{fill:#D0E0EF;}
	.st17{opacity:0.2;fill:url(#SVGID_6_);}
</style>
<linearGradient id="SVGID_1_" gradientUnits="userSpaceOnUse" x1="-60.4423" y1="524.7856" x2="1199.7416" y2="524.7856" gradientTransform="matrix(1 0 0 -1 0 1188)">
	<stop  offset="0" style="stop-color:#FFFFFF"/>
	<stop  offset="0" style="stop-color:#808CF9"/>
	<stop  offset="0" style="stop-color:#1464F0"/>
	<stop  offset="1" style="stop-color:#429CF8"/>
</linearGradient>
<path class="st0" d="M1199.1,438.6c12.5,15.1-159.1,211.4-389.2,331.6c-58,30.3-113.9,60.3-183.5,81.8
	c-50,15.4-133.7,40.4-243.3,36.2c-76-2.9-207.9-17.2-319.5-107.9c-53.2-43.2-81.2-114.1-85.4-122.8C-45.6,608-72.2,552.7-54.9,533.1
	c28.3-32,141.2,68.7,300,121.5c343.1,114,695.4-64,750-91.5C1125.2,497.4,1191.5,429.4,1199.1,438.6z"/>
<path class="st1" d="M1876,354.6c-58.1-28.8-97.6-48.1-142.9-58.1c0,0-30.6-6.1-61.1-7.9c-153.3-8.9-438.7,104.6-431.2,128.1
	c3.5,10.9,69.4-1.1,99.2-6.6c82.6-15.1,110.6-39.2,174-55.5c15.8-4.1,93.4-23,180.8-6.3c123.5,23.6,200.5,106.1,225.1,81.3
	c8.3-8.3,6.7-24.2,6.5-25.5C1923.9,379.9,1895.8,364.4,1876,354.6z"/>
<path class="st2" d="M1539,194c72.2-36.6,108.8-55,137-62c173.7-43.2,306,69.1,325,42c23.5-33.5-159.9-269.5-302-235
	c-63.2,15.3-69.1,66.5-193.9,195.7C1384.5,259.5,1280.9,322.9,1286,330C1290.7,336.6,1374.9,277.1,1539,194z"/>
<linearGradient id="SVGID_2_" gradientUnits="userSpaceOnUse" x1="-56.8085" y1="676.1244" x2="1976.582" y2="676.1244" gradientTransform="matrix(1 0 0 -1 0 1188)">
	<stop  offset="0" style="stop-color:#FFFFFF"/>
	<stop  offset="0" style="stop-color:#808CF9"/>
	<stop  offset="0" style="stop-color:#1464F0"/>
	<stop  offset="1" style="stop-color:#429CF8"/>
</linearGradient>
<path class="st3" d="M1974.5,498c-15.9,15.9-109.3-129.8-300-164.9c0,0-249.4-46-501,141c-29.2,21.7-51.6,43.4-51.6,43.4
	c-47,47.4-59.4,88.4-167.4,180.1c0,0-5.2,4.5-10.4,8.8c-21.8,18.1-144.9,111.3-286.6,156.2c-97.4,30.9-362.8,115-556.5-34.5
	C83.2,814.2-83.2,682.7-53.2,555.7C-15.1,394.3,291.7,433.6,960,247.1c364.9-101.8,492.6-181.4,677.1-110.5
	C1868.2,225.4,1994.6,478,1974.5,498z"/>
<ellipse class="st1" cx="1550.8" cy="160.5" rx="222.7" ry="160.5"/>
<circle class="st4" cx="482.5" cy="133.5" r="11.5"/>
<circle class="st4" cx="1087" cy="655" r="10"/>
<circle class="st4" cx="257.5" cy="736.5" r="8.5"/>
<linearGradient id="SVGID_3_" gradientUnits="userSpaceOnUse" x1="-111.9648" y1="601.8969" x2="1973.1821" y2="601.8969" gradientTransform="matrix(1 0 0 -1 0 936)">
	<stop  offset="0" style="stop-color:#FFFFFF"/>
	<stop  offset="0" style="stop-color:#808CF9"/>
	<stop  offset="0" style="stop-color:#1464F0"/>
	<stop  offset="1" style="stop-color:#429CF8"/>
</linearGradient>
<path class="st5" d="M1957,236.9c9.3,47.7,15,113.6-21.4,146.2c-67.8,60.5-183.3-81.8-357-60c-244.9,30.7-462.7,179-513,243
	c-1.5,2-4.4,5.7-8.5,10.5c0,0-9.9,11.6-21.5,22.5c-92.8,86.8-282,182.4-282,182.4c-14.2,7.1-32.1,17.5-57.4,28.6
	c-10.7,4.7-20.9,8.9-30.7,12.6c-26.2,10-48.4,16.5-61.5,20.1c0,0-4.9,1.3-9.7,2.6c-229.3,59.1-396.6-17.9-396.6-17.9
	C22.2,746.6-51.2,578.2-80.8,511.9c-6.3-14.1-14.8-28.5-19-48.5c-59.1-278.7,107.4-560.7,278-594.9
	c132.6-26.6,215.4,107.4,503,114.2c21.6,0.5,41.3,0.2,59.4-0.5c42-1.8,75.3-5.8,92.5-8.1c3.9-0.5,7.1-1,8.8-1.2c0,0,0.6-0.1,1.2-0.2
	C1582-150.4,1776-257.5,1893-164C1948.8-119.4,2000.4-18.6,1957,236.9z"/>
<path class="st6" d="M1244,578"/>
<linearGradient id="SVGID_4_" gradientUnits="userSpaceOnUse" x1="2030" y1="198" x2="2030" y2="198" gradientTransform="matrix(1 0 0 -1 0 936)">
	<stop  offset="0" style="stop-color:#708AFF"/>
	<stop  offset="1" style="stop-color:#4961FF"/>
</linearGradient>
<path class="st7" d="M2030,738"/>
<circle class="st4" cx="1467.2" cy="487.7" r="13.1"/>
<circle class="st4" cx="1671.8" cy="853" r="14.6"/>
<circle class="st8" cx="1675.3" cy="854.9" r="11.2"/>
<circle class="st9" cx="157.8" cy="686.7" r="14.6"/>
<circle class="st10" cx="413.8" cy="44.3" r="15.7"/>
<circle class="st11" cx="307.7" cy="487.7" r="13.1"/>
<path class="st12" d="M212.1-227.4"/>
<g class="st13">
	
		<linearGradient id="SVGID_5_" gradientUnits="userSpaceOnUse" x1="6" y1="1050.4" x2="911.9341" y2="1050.4" gradientTransform="matrix(1 0 0 -1 0 1079)">
		<stop  offset="0" style="stop-color:#FFFFFF"/>
		<stop  offset="0" style="stop-color:#808CF9"/>
		<stop  offset="0" style="stop-color:#1464F0"/>
		<stop  offset="1" style="stop-color:#429CF8"/>
	</linearGradient>
	<path class="st14" d="M838,174.9c-38.2,39.6-114.4,72-169.4,72H106c-55,0-100-45-100-100V-89.7c0-55,45-100,100-100h562.6
		c55,0,140.7,19.2,190.4,42.7c0,0,25.6,12.1,49.5,122.8C930.7,78.8,838,174.9,838,174.9z"/>
</g>
<g class="st15">
	<path class="st16" d="M2184.5,44.3c0,47.4-45,86.2-100,86.2h-273.4c-55,0-100-38.8-100-86.2s45-86.2,100-86.2h273.4
		C2139.5-41.9,2184.5-3.1,2184.5,44.3z"/>
</g>
<linearGradient id="SVGID_6_" gradientUnits="userSpaceOnUse" x1="-7.8085" y1="380.3496" x2="158.5915" y2="380.3496">
	<stop  offset="0" style="stop-color:#FFFFFF"/>
	<stop  offset="0" style="stop-color:#808CF9"/>
	<stop  offset="0" style="stop-color:#1464F0"/>
	<stop  offset="1" style="stop-color:#429CF8"/>
</linearGradient>
<path class="st17" d="M116.4,426.6H34.4c-23.3,0-42.2-18.9-42.2-42.2v-8c0-23.3,18.9-42.2,42.2-42.2h81.9
	c23.3,0,42.2,18.9,42.2,42.2v8C158.6,407.7,139.7,426.6,116.4,426.6z"/>
</svg>
