<?xml version="1.0" encoding="utf-8"?>
<!-- Generator: Adobe Illustrator 21.0.0, SVG Export Plug-In . SVG Version: 6.00 Build 0)  -->
<svg version="1.1" id="Layer_1" xmlns="http://www.w3.org/2000/svg" xmlns:xlink="http://www.w3.org/1999/xlink" x="0px" y="0px"
	 viewBox="0 0 1920 1080" style="enable-background:new 0 0 1920 1080;" xml:space="preserve">
<style type="text/css">
	.st0{fill:#4961FF;}
	.st1{fill:#526EFF;}
</style>
<g>
	<path class="st0" d="M1953,213c18.6,192.1,27.9,288.2-13,404c-23.2,65.7-84.2,246.2-246.5,291.5
		C1486.3,966.3,1310.7,785.1,1294,767c-117.5-126.9-75.4-230.1-146-368C966.3,44.1,373.3,113.6,365-16
		c-7.5-117.6,474.6-267.8,929-262c195.1,2.5,488.1,8.4,600.5,190.5C1929.4-31,1937.2,50.3,1953,213z"/>
</g>
<path class="st1" d="M1875,158c134.6,183.9,23.6,599.7-204,653c-108.2,25.3-240.6-31.8-313-119c-90.9-109.6-36.2-205.3-135-350
	c-28.8-42.2-53.1-62.8-206-176C686-79.1,641.2-100.2,648-121c12.2-37.3,165.3,2.8,903,151C1741.2,68.2,1820.5,83.5,1875,158z"/>
<circle class="st1" cx="482.5" cy="133.5" r="11.5"/>
<circle class="st1" cx="1087" cy="655" r="10"/>
<circle class="st1" cx="257.5" cy="736.5" r="8.5"/>
<path class="st1" d="M1374,467.3c-37.3,87.1-279.8-52.7-565,93.7C600.9,667.8,605.7,806,447,838.5C254.1,878-44,733.7-101,467.3
	c-60.6-283.6,125-572.1,278-589.5C312.6-137.5,391,63.4,636.5,67.9c65.7,1.2,73.2-13,134.5-17C857.7,45.3,1430.9,334.4,1374,467.3z"
	/>
<path class="st1" d="M1244,578"/>
</svg>
