<?xml version="1.0" encoding="utf-8"?>
<!-- Generator: Adobe Illustrator 21.0.0, SVG Export Plug-In . SVG Version: 6.00 Build 0)  -->
<svg version="1.1" id="Layer_1" xmlns="http://www.w3.org/2000/svg" xmlns:xlink="http://www.w3.org/1999/xlink" x="0px" y="0px"
	 viewBox="0 0 600 600" style="enable-background:new 0 0 600 600;" xml:space="preserve">
<style type="text/css">
	.st0{fill:#EDF1FC;}
	.st1{fill:#8398FE;}
</style>
<g transform="translate(300,300)">
	<path class="st0" d="M92.3-198.5c22,24.6,28,63.8,51.7,99.6s65,68.2,66.5,98.7c1.5,30.5-36.7,59.2-70,85.3
		c-33.3,26-61.5,49.7-99.4,78c-37.9,28.4-85.5,61.5-119,50c-33.5-11.3-52.9-67.4-58.4-113.4c-5.4-45.9,3-81.9-20.3-124.3
		c-23.2-42.3-78.2-91.2-71.5-114.5c6.7-23.2,75-20.8,122.3-33.9S-32.2-214.7,0-224S70.2-223.2,92.3-198.5z"/>
</g>
<path d="M264.7,332c-1.1,0-2.3-0.4-3.2-1.2l-32.1-27.3c-1.1-0.9-1.7-2.3-1.7-3.8c0-1.5,0.6-2.8,1.7-3.8l32.1-27.3
	c2.1-1.8,5.2-1.5,7,0.6c1.8,2.1,1.5,5.2-0.6,7l-27.6,23.5l27.6,23.5c2.1,1.8,2.3,4.9,0.6,7C267.5,331.4,266.1,332,264.7,332z"/>
<path d="M328,332c-1.4,0-2.8-0.6-3.8-1.7c-1.8-2.1-1.5-5.2,0.6-7l27.6-23.5l-27.6-23.5c-2.1-1.8-2.3-4.9-0.6-7
	c1.8-2.1,4.9-2.3,7-0.6l32.1,27.3c1.1,0.9,1.7,2.3,1.7,3.8c0,1.5-0.6,2.8-1.7,3.8l-32.1,27.3C330.2,331.6,329.1,332,328,332z"/>
<path class="st1" d="M285,352.5c-0.3,0-0.7,0-1-0.1c-2.7-0.6-4.4-3.2-3.8-5.9l20-94.9c0.6-2.7,3.2-4.4,5.9-3.8
	c2.7,0.6,4.4,3.2,3.8,5.9l-20,94.9C289.3,350.9,287.3,352.5,285,352.5z"/>
<path d="M413.1,404.1H179.5c-18.3,0-33.3-14.9-33.3-33.3V172.6c0-18.3,14.9-33.3,33.3-33.3h233.5c18.3,0,33.3,14.9,33.3,33.3v198.2
	C446.4,389.2,431.4,404.1,413.1,404.1z M179.5,149.3c-12.9,0-23.4,10.5-23.4,23.4v198.2c0,12.9,10.5,23.4,23.4,23.4h233.5
	c12.9,0,23.4-10.5,23.4-23.4V172.6c0-12.9-10.5-23.4-23.4-23.4H179.5z"/>
<path d="M441.4,218.7H151.2c-2.7,0-5-2.2-5-5c0-2.7,2.2-5,5-5h290.2c2.7,0,5,2.2,5,5C446.4,216.5,444.1,218.7,441.4,218.7z"/>
<path class="st1" d="M230.9,195c-8.6,0-15.7-7-15.7-15.7c0-8.6,7-15.7,15.7-15.7c8.6,0,15.7,7,15.7,15.7
	C246.6,188,239.6,195,230.9,195z M230.9,173.6c-3.2,0-5.8,2.6-5.8,5.8s2.6,5.8,5.8,5.8c3.2,0,5.8-2.6,5.8-5.8
	S234.1,173.6,230.9,173.6z"/>
<path class="st1" d="M182.8,194.9c-8.6,0-15.7-7-15.7-15.7c0-8.6,7-15.7,15.7-15.7s15.7,7,15.7,15.7
	C198.4,187.8,191.4,194.9,182.8,194.9z M182.8,173.4c-3.2,0-5.8,2.6-5.8,5.8c0,3.2,2.6,5.8,5.8,5.8c3.2,0,5.8-2.6,5.8-5.8
	C188.5,176,185.9,173.4,182.8,173.4z"/>
<path class="st1" d="M279.1,195.2c-8.6,0-15.7-7-15.7-15.7c0-8.6,7-15.7,15.7-15.7c8.6,0,15.7,7,15.7,15.7
	C294.8,188.1,287.7,195.2,279.1,195.2z M279.1,173.7c-3.2,0-5.8,2.6-5.8,5.8s2.6,5.8,5.8,5.8c3.2,0,5.8-2.6,5.8-5.8
	S282.3,173.7,279.1,173.7z"/>
</svg>
