<?xml version="1.0" encoding="utf-8"?>
<!-- Generator: Adobe Illustrator 21.0.0, SVG Export Plug-In . SVG Version: 6.00 Build 0)  -->
<svg version="1.1" id="Layer_1" xmlns="http://www.w3.org/2000/svg" xmlns:xlink="http://www.w3.org/1999/xlink" x="0px" y="0px"
	 viewBox="0 0 600 600" style="enable-background:new 0 0 600 600;" xml:space="preserve">
<style type="text/css">
	.st0{fill:#EDF1FC;}
	.st1{fill:#526EFF;}
</style>
<g transform="translate(300,300)">
	<path class="st0" d="M159.9-189.6c33.8,42.8,51.8,86.9,61.5,133.2s11.2,94.8-2,153C206,154.9,178,223.1,136,224
		c-42.2,0.9-98.2-65.3-174.2-87.9c-75.9-22.8-171.8-1.9-212.7-29.5C-292,79-278.3,2.8-238.2-44.5s106.4-65.7,155.1-106
		c48.6-40.4,79.5-102.6,119.7-113S126.1-232.4,159.9-189.6z"/>
</g>
<g>
	<g>
		<g>
			<path d="M462.1,177.7h-0.5c0-18.9-14.8-33.7-33.7-33.7H178.6c-18.9,0-33.7,14.8-33.7,33.7v157.4c0,18.9,14.8,33.7,33.7,33.7H269
				l-7.7,35.8h-34.7c-3.1,0-5.1,2-5.1,5.1v20.4c0,3.1,2,5.1,5.1,5.1h153.3c3.1,0,5.1-2,5.1-5.1v-20.4c0-3.1-2-5.1-5.1-5.1h-34.2
				l-7.7-35.8h90.4c18.4,0,33.7-14.8,33.7-33.7V177.7z M374.7,414.8V425H231.7v-10.2H374.7z M271.5,404.6l7.7-35.8h48l7.7,35.8
				H271.5z M451.4,335.1c0,12.8-10.7,23.5-23.5,23.5H178.6c-12.8,0-23.5-10.7-23.5-23.5v-17.4h296.3V335.1z M451.4,307.5H155V177.7
				c0-12.8,10.7-23.5,23.5-23.5h249.3c12.8,0,23.5,10.7,23.5,23.5L451.4,307.5L451.4,307.5z"/>
			<circle cx="303.2" cy="338.1" r="10.2"/>
			<rect x="379.8" y="174.7" width="10.2" height="10.2"/>
			<rect x="400.3" y="174.7" width="10.2" height="10.2"/>
			<rect x="420.7" y="174.7" width="10.2" height="10.2"/>
			<rect x="400.3" y="195.1" width="10.2" height="10.2"/>
			<rect x="420.7" y="195.1" width="10.2" height="10.2"/>
			<rect x="328.8" y="276.8" width="102.2" height="10.2"/>
			<rect x="344.1" y="256.4" width="86.9" height="10.2"/>
			<rect x="359.4" y="236" width="71.5" height="10.2"/>
			<rect x="420.7" y="215.5" width="10.2" height="10.2"/>
			<path class="st1" d="M305.8,216c-1.5-1-3.6-1-5.1,0l-23,11.8v-7.2c0-3.1-2-5.1-5.1-5.1h-26.1c0.5-1.5,0.5-3.6,0.5-5.1
				c0-19.9-15.8-35.8-35.8-35.8s-35.8,15.8-35.8,35.8c0,17.9,13.3,32.7,30.7,35.3v36.3c0,3.1,2,5.1,5.1,5.1h61.3
				c3.1,0,5.1-2,5.1-5.1v-7.2l23,11.8c1,0.5,1.5,0.5,2.6,0.5c3.1,0,5.1-2,5.1-5.1v-61.3C308.3,219.1,307.3,217.1,305.8,216z
				 M206.1,220.6v14.8c-13.8-2.6-23-16.3-19.9-30.1c2.6-11.8,12.8-20.4,25-20.4c14.3,0,25.5,11.2,25.5,25.5c0,1.5,0,3.6-0.5,5.1h-25
				C208.2,215.5,206.1,217.6,206.1,220.6z M231.7,225.7c-3.6,5.1-9.2,8.7-15.3,9.7v-9.7H231.7z M267.4,258.4l-14.3-7.2l14.3-7.2
				V258.4z M267.4,232.9l-28.1,13.8c-1.5,1-2.6,2.6-2.6,4.6s1,3.6,2.6,4.6l28.1,13.8v7.2h-51.1v-31.2c11.8-1.5,22-9.2,27.1-19.9h24
				V232.9z M298.1,273.8l-20.4-10.2V239l20.4-10.2V273.8z"/>
		</g>
	</g>
</g>
</svg>
