<?xml version="1.0" encoding="utf-8"?>
<!-- Generator: Adobe Illustrator 21.0.0, SVG Export Plug-In . SVG Version: 6.00 Build 0)  -->
<svg version="1.1" id="Layer_1" xmlns="http://www.w3.org/2000/svg" xmlns:xlink="http://www.w3.org/1999/xlink" x="0px" y="0px"
	 viewBox="0 0 600 600" style="enable-background:new 0 0 600 600;" xml:space="preserve">
<style type="text/css">
	.st0{fill:#EDF1FC;}
	.st1{fill:#526EFF;}
</style>
<g transform="translate(300,300)">
	<path class="st0" d="M108.5-122c34.5,50.7,54.2,97.3,77.9,154.6s51.5,125.3,26.4,157.2c-25,32-102.9,27.9-158,18.1
		s-87.2-25-134-29.3S-187.4,181-204,158.7C-220.5,136.4-192.1,85-183.7,29s-3.1-116.9,20.1-169.5c23.1-52.7,81-97.1,134.7-91.9
		C24.7-227.2,74-172.5,108.5-122z"/>
</g>
<g>
	<g>
		<path d="M272.9,298.6c-2.4-2.4-6.2-2.4-8.6,0s-2.4,6.2,0,8.6s6.2,2.4,8.6,0C275.2,304.8,275.2,301,272.9,298.6z"/>
	</g>
</g>
<g>
	<g>
		<path d="M350.1,221.5c-11.8-11.8-31-11.8-42.9,0c-11.8,11.8-11.8,31.1,0,42.9s31.1,11.8,42.9,0
			C361.9,252.5,361.9,233.3,350.1,221.5z M341.5,255.8c-7.1,7.1-18.6,7.1-25.7,0c-7.1-7.1-7.1-18.6,0-25.7c7.1-7.1,18.6-7.1,25.7,0
			C348.6,237.1,348.6,248.7,341.5,255.8z"/>
	</g>
</g>
<g>
	<g>
		<path d="M418.7,152.9c-1.2-1.2-2.8-1.8-4.5-1.8c-1.4,0-34,1.4-72.8,15.1c-31.1,11-57,26.7-77,46.7c-4.5,4.5-8.9,9.2-13,14.2
			c-19.8-11.7-35.7-8-45.7-2.6c-23.1,12.4-37.4,45.9-37.4,69.9c0,2.5,1.5,4.7,3.7,5.6c0.8,0.3,1.5,0.5,2.3,0.5
			c1.6,0,3.1-0.6,4.3-1.8c12.2-12.2,27.2-11.4,32.1-10.8l2.1,2.1c-4.2,9.9-7.5,19.8-10,29.5c-0.9,3.5-0.6,7.2,0.7,10.5
			c-5.8,2.7-11.5,6.6-16.4,11.5c-15.6,15.6-18.8,53.6-18.9,55.3c-0.1,1.8,0.5,3.5,1.8,4.8c1.1,1.1,2.7,1.8,4.3,1.8
			c0.2,0,0.3,0,0.5,0c1.6-0.1,39.7-3.3,55.3-18.9c4.9-4.9,8.9-10.5,11.5-16.4c3.6,1.4,7.2,1.6,10.5,0.7c9.6-2.5,19.5-5.8,29.4-10
			l2.1,2.1c0.6,4.9,1.4,19.9-10.8,32.1c-1.7,1.7-2.3,4.3-1.3,6.6c0.9,2.3,3.1,3.7,5.6,3.7c24,0,57.6-14.3,69.9-37.4
			c5.4-10,9-25.9-2.6-45.7c4.9-4.2,9.7-8.5,14.2-13c20-20,35.7-45.9,46.7-77c13.7-38.8,15-71.5,15.1-72.8
			C420.5,155.7,419.8,154,418.7,152.9z M181.8,281.3c3.8-18.2,14.7-38.2,29.6-46.2c9.9-5.3,20.8-4.8,32.3,1.5
			c-9.8,12.9-18.4,26.8-25.5,41.5c-0.1-0.1-1.2-1.4-3.2-1.9C214.1,276.1,198,272.7,181.8,281.3z M221.4,375.8
			c-8.3,8.3-27.9,12.7-40.3,14.5c1.8-12.4,6.2-31.9,14.5-40.3c4.7-4.7,10.1-8.2,15.5-10.2l20.4,20.4
			C229.6,365.7,226.1,371.1,221.4,375.8z M249.1,357c-1.8,0.4-3.8-0.2-5.3-1.7c-7.8-7.8-10.9-10.9-11.9-11.9
			c-1.8-1.8-6.1-6.1-15.7-15.7c-1.5-1.5-2.2-3.5-1.7-5.3c1.9-7.6,4.5-15.3,7.6-23.2l50.1,50.1C264.4,352.5,256.6,355.1,249.1,357z
			 M336.4,360.2c-7.9,14.8-27.9,25.8-46.2,29.6c5.8-10.9,7.1-24.9,5-33.3c-0.5-2-1.8-2.9-1.8-3.1c14.7-7.1,28.6-15.7,41.5-25.5
			C341.2,339.4,341.7,350.3,336.4,360.2z M350.1,298.6c-5.5,5.5-11.3,10.7-17.5,15.7c-14.8,11.9-31,22-48.3,30l-57-57
			c8-17.3,18.1-33.6,30-48.3c5-6.1,10.2-12,15.7-17.5c18-18,41.1-32.3,68.9-42.6l50.8,50.8C382.3,257.5,368,280.7,350.1,298.6z
			 M397,216.9l-42.4-42.4c23.1-7.2,43.2-9.9,53.2-10.8C406.8,173.7,404.1,193.8,397,216.9z"/>
	</g>
</g>
<g>
	<g>
		<path class="st1" d="M255.7,401.5c-2.4-2.4-6.2-2.4-8.6,0L230,418.7c-2.4,2.4-2.4,6.2,0,8.6s6.2,2.4,8.6,0l17.1-17.2
			C258.1,407.7,258.1,403.9,255.7,401.5z"/>
	</g>
</g>
<g>
	<g>
		<path class="st1" d="M170,315.8c-2.4-2.4-6.2-2.4-8.6,0l-17.2,17.1c-2.4,2.4-2.4,6.2,0,8.6s6.2,2.4,8.6,0l17.2-17.1
			C172.3,322,172.3,318.2,170,315.8z"/>
	</g>
</g>
<g>
	<g>
		<path class="st1" d="M212.9,410.1c-2.4-2.4-6.2-2.4-8.6,0l-41.1,41.1c-2.4,2.4-2.4,6.2,0,8.6s6.2,2.4,8.6,0l41.1-41.1
			C215.2,416.3,215.2,412.5,212.9,410.1z"/>
	</g>
</g>
<g>
	<g>
		<path class="st1" d="M164.3,410.1c-2.4-2.4-6.2-2.4-8.6,0l-41.1,41.1c-2.4,2.4-2.4,6.2,0,8.6s6.2,2.4,8.6,0l41.1-41.1
			C166.7,416.3,166.7,412.5,164.3,410.1z"/>
	</g>
</g>
<g>
	<g>
		<path class="st1" d="M161.4,358.7c-2.4-2.4-6.2-2.4-8.6,0l-41.1,41.1c-2.4,2.4-2.4,6.2,0,8.6s6.2,2.4,8.6,0l41.1-41.1
			C163.8,364.9,163.8,361,161.4,358.7z"/>
	</g>
</g>
<g>
	<g>
		<path d="M298.6,272.9c-2.4-2.4-6.2-2.4-8.6,0l-8.6,8.6c-2.4,2.4-2.4,6.2,0,8.6s6.2,2.4,8.6,0l8.6-8.6
			C301,279.1,301,275.3,298.6,272.9z"/>
	</g>
</g>
</svg>
