<?xml version="1.0" encoding="utf-8"?>
<!-- Generator: Adobe Illustrator 21.0.0, SVG Export Plug-In . SVG Version: 6.00 Build 0)  -->
<svg version="1.1" id="Layer_1" xmlns="http://www.w3.org/2000/svg" xmlns:xlink="http://www.w3.org/1999/xlink" x="0px" y="0px"
	 viewBox="0 0 682 682" style="enable-background:new 0 0 682 682;" xml:space="preserve">
<style type="text/css">
	.st0{fill:#E5EF11;}
</style>
<path d="M660.3,98.8c-0.3-6.6-5.8-11.9-12.5-11.9H33.5c-6.7,0-12.1,5.2-12.5,11.9c0,0.2,0,0.4,0,0.6v474.5c0,6.9,5.6,12.5,12.5,12.5
	h614.4c6.9,0,12.5-5.6,12.5-12.5V99.4C660.4,99.2,660.4,99,660.3,98.8z M635.4,561.4H46V194.3h589.4V561.4z M635.4,169.4H46v-57.6
	h589.4V169.4z"/>
<path d="M234.5,153.9h-99.9c-6.9,0-12.5-5.6-12.5-12.5c0-6.9,5.6-12.5,12.5-12.5h99.9c6.9,0,12.5,5.6,12.5,12.5
	C247,148.3,241.4,153.9,234.5,153.9z"/>
<path d="M84.7,153.9c-6.9,0-12.5-5.6-12.5-12.5c0-6.9,5.6-12.5,12.5-12.5h0c6.9,0,12.5,5.6,12.5,12.5
	C97.2,148.3,91.6,153.9,84.7,153.9z"/>
<path d="M587.9,227.5H93.4c-6.9,0-12.5,5.6-12.5,12.5v274.8c0,6.8,5.7,12.5,12.5,12.5h494.5c6.8,0,12.5-5.7,12.5-12.5V240
	C600.4,233.1,594.8,227.5,587.9,227.5z M123.6,502.3l147.9-147.9l100.5,100.5l47.4,47.4H123.6z M454.6,502.3l-56.2-56.2l51.6-51.6
	l107.8,107.8H454.6z M575.4,484.7L458.8,368c-2.3-2.3-5.5-3.7-8.8-3.7c-3.3,0-6.5,1.3-8.8,3.7l-60.4,60.4L280.2,327.9
	c-4.9-4.9-12.8-4.9-17.7,0L105.9,484.6V252.5h469.5V484.7z"/>
<path class="st0" d="M501.8,356.4c-21.5,0-39-17.5-39-39c0-21.5,17.5-39,39-39c21.5,0,39,17.5,39,39
	C540.8,338.9,523.3,356.4,501.8,356.4z M501.8,303.3c-7.7,0-14,6.3-14,14c0,7.7,6.3,14,14,14s14-6.3,14-14
	C515.8,309.6,509.5,303.3,501.8,303.3z"/>
</svg>
