<?xml version="1.0" encoding="utf-8"?>
<!-- Generator: Adobe Illustrator 21.0.0, SVG Export Plug-In . SVG Version: 6.00 Build 0)  -->
<svg version="1.1" id="Layer_1" xmlns="http://www.w3.org/2000/svg" xmlns:xlink="http://www.w3.org/1999/xlink" x="0px" y="0px"
	 viewBox="0 0 512 511" style="enable-background:new 0 0 512 511;" xml:space="preserve">
<style type="text/css">
	.st0{fill:#526EFF;}
</style>
<path class="st0" d="M355.6,234.9c3.9-3.9,3.9-10.2,0-14.1c-3.9-3.9-10.2-3.9-14.1,0s-3.9,10.2,0,14.1S351.7,238.8,355.6,234.9z"/>
<path d="M10,512.5h492c4,0,7.7-2.4,9.2-6.2s0.7-8-2.2-10.9L17,3.4C14.2,0.6,9.9-0.3,6.2,1.3C2.4,2.8,0,6.5,0,10.5v492
	C0,508,4.5,512.5,10,512.5z M20,34.6l80.4,80.4l-21.2,21.2c-3.9,3.9-3.9,10.2,0,14.1c3.9,3.9,10.2,3.9,14.1,0l21.2-21.2l42.4,42.4
	l-21.2,21.2c-3.9,3.9-3.9,10.2,0,14.1c3.9,3.9,10.2,3.9,14.1,0l21.2-21.2l42.4,42.4l-21.2,21.2c-3.9,3.9-3.9,10.2,0,14.1
	s10.2,3.9,14.1,0l21.2-21.2l42.4,42.4l-21,21.5c-3.9,3.9-3.9,10.2,0,14.1s10.2,3.9,14.1,0l21.2-21.2l42.4,42.4l-21.2,21.2
	c-3.9,3.9-3.9,10.2,0,14.1s10.2,3.9,14.1,0l21.2-21.2l42.4,42.4L361.9,419c-3.9,3.9-3.9,10.2,0,14.1s10.2,3.9,14.1,0l21.2-21.2
	l80.4,80.4H20V34.6z"/>
<path class="st0" d="M103.1,208.4c-2.9-2.9-7.2-3.7-10.9-2.2c-3.7,1.5-6.2,5.2-6.2,9.2v201c0,5.5,4.5,10,10,10h201
	c4,0,7.7-2.4,9.2-6.2c1.5-3.7,0.7-8-2.2-10.9L103.1,208.4z M106,406.5V239.6l166.9,166.9H106z"/>
<path class="st0" d="M313.2,206.6c3.9,3.9,10.2,3.9,14.1,0s3.9-10.2,0-14.1l-42.4-42.4c-3.9-3.9-10.2-3.9-14.1,0s-3.9,10.2,0,14.1
	L313.2,206.6z"/>
<path d="M151.8,102.4l280.7,280.7c11.7,11.7,30.7,11.7,42.4,0l28.3-28.3c11.7-11.7,11.7-30.7,0-42.4L222.5,31.7
	c-1.1-1.1-2.4-1.9-3.9-2.4L133.8,1c-3.6-1.2-7.6-0.3-10.2,2.4c-2.7,2.7-3.6,6.6-2.4,10.2l28.3,84.9
	C149.9,100,150.7,101.3,151.8,102.4z M489.1,326.5c3.9,3.9,3.9,10.3,0,14.1L460.8,369c-3.9,3.9-10.2,3.9-14.1,0L425,347.3l42.4-42.4
	L489.1,326.5z M453.3,290.7l-42.4,42.4L396.7,319l42.4-42.4L453.3,290.7z M222.1,59.5l202.9,203l-42.4,42.4L179.6,102L222.1,59.5z
	 M206.9,46.5l-40.3,40.3l-20.1-60.4L206.9,46.5z"/>
</svg>
