<?xml version="1.0" encoding="utf-8"?>
<!-- Generator: Adobe Illustrator 21.0.0, SVG Export Plug-In . SVG Version: 6.00 Build 0)  -->
<svg version="1.1" id="Layer_1" xmlns="http://www.w3.org/2000/svg" xmlns:xlink="http://www.w3.org/1999/xlink" x="0px" y="0px"
	 viewBox="0 0 1366 400" style="enable-background:new 0 0 1366 400;" xml:space="preserve">
<style type="text/css">
	.st0{opacity:0.6;fill:url(#SVGID_1_);enable-background:new    ;}
	.st1{fill:#4355FF;}
	.st2{fill:#4A5EFF;}
	.st3{fill:url(#SVGID_2_);}
	.st4{fill:none;}
	.st5{fill:#526EFF;}
	.st6{fill:#4562DB;}
	.st7{opacity:0.3;fill:#1869F1;enable-background:new    ;}
</style>
<linearGradient id="SVGID_1_" gradientUnits="userSpaceOnUse" x1="-28.802" y1="196.6632" x2="1437.485" y2="196.6632" gradientTransform="matrix(1 0 0 -1 0 402)">
	<stop  offset="0" style="stop-color:#4753F6"/>
	<stop  offset="1" style="stop-color:#3B9EFE"/>
</linearGradient>
<path class="st0" d="M1436.5,199.8c11.5,22.9-84.8,110.1-174,149c-145.3,63.4-228.1,3-519.5-35C429.6,273,328.7,317.3,136.5,219
	c-32-16.3-175.3-92.2-164.8-137.2c15.6-66.4,367.1-65.2,697.8,15c39.2,9.5,30.3,9.8,72.1,18.6c328.4,69.2,492.9,105.1,639.9,81.4
	C1397.4,194.2,1430.7,188.2,1436.5,199.8z"/>
<g>
	<path class="st1" d="M181.7,163c-40.3,8-80,19.2-118.5,33.4c-18.5,6.9-36.8,14.4-54.7,22.6l-0.4,63.4l816.7,4.7
		c-53.5-32.7-110.4-61.5-172-84.6C503.7,146.7,338.4,131.8,181.7,163z"/>
	<path class="st2" d="M0.7,288.6l940.9-4c-101.2-66.3-208.4-127.2-331-166.8c-163.9-53.1-341.7-56.7-508.1-14.3
		C67.8,112.3,33.4,123.3,0,136.3L0.7,288.6L0.7,288.6z"/>
	
		<linearGradient id="SVGID_2_" gradientUnits="userSpaceOnUse" x1="-0.7" y1="1193.5364" x2="1366.7001" y2="1193.5364" gradientTransform="matrix(1 0 0 1 0 -932)">
		<stop  offset="0" style="stop-color:#1464F0"/>
		<stop  offset="1" style="stop-color:#429CF8"/>
	</linearGradient>
	<path class="st3" d="M970.5,218.5c-0.8-0.3-3.6-1.5-3.6-1.5c-1.2-0.5-2.3-1-3.5-1.4c-146.2-61.4-303-126.2-464.2-168.2
		C329.3,3.2,164.7,3.6-0.7,52.2l1.5,455.9l1365.9-4.6c-0.2-91.8-0.5-183.7-0.7-275.5c-40,22.3-74.7,32.1-98,37
		C1268,265,1146.5,290.4,970.5,218.5z"/>
</g>
<circle class="st4" cx="1060" cy="172.5" r="10"/>
<circle class="st4" cx="990.7" cy="19.2" r="8.7"/>
<circle class="st4" cx="1214" cy="100.5" r="9"/>
<circle class="st4" cx="1153" cy="49.5" r="9"/>
<circle class="st5" cx="338.2" cy="253.9" r="12.3"/>
<circle class="st6" cx="341.5" cy="254.8" r="8.9"/>
<circle class="st5" cx="1285.9" cy="166.5" r="6"/>
<ellipse class="st6" cx="1297.5" cy="164" rx="11.6" ry="10.9"/>
<circle class="st5" cx="859.3" cy="34.2" r="6.3"/>
<circle class="st6" cx="859.3" cy="31.1" r="3.1"/>
<path class="st7" d="M1390.6,195.6c10.1,20.3-46.2,68.2-56,76C1229,355.9,985.2,214.1,753,138C330.8-0.3-15,91.3-16.2,61.7
	C-17.1,40.5,160.8-8,336,14c46.5,5.8,93.9,16.8,300,59c13.5,2.8,30.3,6.2,52.9,11.7c30.7,7.5,43.4,12.1,98.1,23.3
	c300.5,61.3,450.7,91.9,551,80C1349.8,186.6,1383.8,182,1390.6,195.6z"/>
</svg>
