<?xml version="1.0" encoding="utf-8"?>
<!-- Generator: Adobe Illustrator 21.0.0, SVG Export Plug-In . SVG Version: 6.00 Build 0)  -->
<svg version="1.1" id="Layer_1" xmlns="http://www.w3.org/2000/svg" xmlns:xlink="http://www.w3.org/1999/xlink" x="0px" y="0px"
	 viewBox="0 0 750 1334" style="enable-background:new 0 0 750 1334;" xml:space="preserve">
<style type="text/css">
	.st0{fill:#3D8FFC;}
	.st1{opacity:0.8;fill:#EEEEEE;}
	.st2{opacity:0.4;fill:#1566F0;}
</style>
<circle class="st0" cx="329" cy="832" r="10"/>
<circle class="st0" cx="169" cy="1144" r="8"/>
<path class="st1" d="M670.9,491.8l-815.3,565.3c-43.3,30-102.7,19.3-132.8-24l-168.1-242.4c-30-43.3-19.3-102.7,24-132.8L394.1,92.6
	c43.3-30,102.7-19.3,132.8,24L695,359C725,402.3,714.2,461.8,670.9,491.8z"/>
<path class="st2" d="M488.4,759.7L31.7,1076.4c-32.3,22.4-76.7,14.4-99.1-18l-53.6-77.3c-22.4-32.3-14.4-76.7,18-99.1l456.7-316.7
	c32.3-22.4,76.7-14.4,99.1,18l53.6,77.3C528.8,692.9,520.7,737.3,488.4,759.7z"/>
</svg>
