<?xml version="1.0" encoding="utf-8"?>
<!-- Generator: Adobe Illustrator 21.0.0, SVG Export Plug-In . SVG Version: 6.00 Build 0)  -->
<svg version="1.1" id="Layer_1" xmlns="http://www.w3.org/2000/svg" xmlns:xlink="http://www.w3.org/1999/xlink" x="0px" y="0px"
	 viewBox="0 0 1366 599" style="enable-background:new 0 0 1366 599;" xml:space="preserve">
<style type="text/css">
	.st0{fill:none;}
	.st1{fill:#526EFF;}
	.st2{fill:#4562DB;}
	.st3{fill:none;stroke:#3B4BFF;stroke-width:2;stroke-miterlimit:10;}
	.st4{fill:none;stroke:#000000;stroke-width:2;stroke-miterlimit:10;}
	.st5{fill:#4355FF;}
	.st6{fill:#4961FF;}
</style>
<circle class="st0" cx="1060" cy="272" r="10"/>
<circle class="st0" cx="990.7" cy="118.7" r="8.7"/>
<circle class="st0" cx="1214" cy="200" r="9"/>
<circle class="st0" cx="1153" cy="149" r="9"/>
<circle class="st1" cx="338.2" cy="473" r="12.3"/>
<circle class="st2" cx="341.5" cy="473" r="8.9"/>
<circle class="st3" cx="808.5" cy="292" r="7.5"/>
<circle class="st4" cx="778.8" cy="669.8" r="8.8"/>
<circle class="st5" cx="1145" cy="248" r="11"/>
<path class="st1" d="M49,201"/>
<g>
	<path class="st5" d="M-67-65.1"/>
	<path class="st6" d="M-144.2-8.7l-0.9,456.1C-39.1,318,21,277.6,51,292c51.5,24.8-8.5,200.6,52,232c59.3,30.8,140.2-126.1,292-120
		c68.9,2.8,85.6,36.4,175.9,33.6c33.9-1.1,99.3-3.1,158.1-42.6c91.8-61.6,62.8-144.3,136-176c43.7-19,58.9,8.4,225.8,6
		c36.9-0.5,65.9-2.9,90.5-23c27-22,32.3-56.9,40.2-95.9c9.6-47.5,4.9-87.5,0.1-112L-144.2-8.7z"/>
	<path class="st1" d="M44,162c23.2,14.1,49.2,0,72,19c33.9,28.2,21.3,91.8,20,98c-10.6,51.6-41.8,57.5-49.3,92
		C71.9,439,163.9,552.6,251,552c75.5-0.5,84.5-86.4,230-158c76-37.4,124.8-47,139-49c78.7-10.9,150.9,6.1,158,7.8
		c20.4,5,50.4,14,104.4,25.5c33.3,7.1,141.9,29.9,264.3,26.3c3.7-0.1,6.9-0.2,7.6-0.2c70.7-2.7,141.1-12.4,211.7-29.4V-3.1
		C917-3.8,468-4.4,19-5C2.2,108.1,21,148,44,162z"/>
</g>
</svg>
