<?xml version="1.0" encoding="utf-8"?>
<!-- Generator: Adobe Illustrator 21.0.0, SVG Export Plug-In . SVG Version: 6.00 Build 0)  -->
<svg version="1.1" id="Layer_1" xmlns="http://www.w3.org/2000/svg" xmlns:xlink="http://www.w3.org/1999/xlink" x="0px" y="0px"
	 viewBox="0 0 1366 599" style="enable-background:new 0 0 1366 599;" xml:space="preserve">
<style type="text/css">
	.st0{fill:#4355FF;}
	.st1{fill:#4961FF;}
	.st2{fill:#526EFF;}
	.st3{fill:none;}
	.st4{fill:#4562DB;}
	.st5{fill:none;stroke:#3B4BFF;stroke-width:2;stroke-miterlimit:10;}
	.st6{fill:none;stroke:#000000;stroke-width:2;stroke-miterlimit:10;}
</style>
<g>
	<path class="st0" d="M-67-60.1"/>
	<path class="st1" d="M-144.2-3.7l-0.9,456.1C-6.5,306.2,37,287.2,51,297c28.6,19.9-71.7,153.7-21,234c54.8,86.6,250,54.5,281,49
		c221.5-39.1,245.2-184.6,418-180c134.8,3.6,214.1,84.6,271.9,37.5c60.2-49,19.3-172.6,89.9-207.6c33.3-16.5,59,2.7,90.5-23
		c27-22,32.3-56.9,40.2-95.9c9.6-47.5,4.9-87.5,0.1-112L-144.2-3.7z"/>
	<path class="st2" d="M44,167c23.2,14.1,49.2,0,72,19c25,20.8,22.4,61.8,20,98c-5.6,85.2-36.3,104.1-28,138
		c14.9,61.1,143.2,118.2,228.1,84.2C510.6,436.5,453,1.6,524-7c30.3-3.7,76.9,72.4,151.2,334.3c59,15.3,87.2,30.2,207.2,56
		c33.3,7.1,141.9,29.9,264.3,26.3c3.7-0.1,6.9-0.2,7.6-0.2c70.7-2.7,141.1-12.4,211.7-29.4V1.9C917,1.2,468,0.6,19,0
		C2.2,113.1,21,153,44,167z"/>
</g>
<circle class="st3" cx="1060" cy="272" r="10"/>
<circle class="st3" cx="990.7" cy="118.7" r="8.7"/>
<circle class="st3" cx="1214" cy="200" r="9"/>
<circle class="st3" cx="1153" cy="149" r="9"/>
<circle class="st2" cx="338.2" cy="473" r="12.3"/>
<circle class="st4" cx="341.5" cy="473" r="8.9"/>
<circle class="st5" cx="808.5" cy="292" r="7.5"/>
<circle class="st6" cx="778.8" cy="669.8" r="8.8"/>
<circle class="st0" cx="1145" cy="248" r="11"/>
<path class="st2" d="M49,201"/>
</svg>
