<?xml version="1.0" encoding="utf-8"?>
<!-- Generator: Adobe Illustrator 21.0.0, SVG Export Plug-In . SVG Version: 6.00 Build 0)  -->
<svg version="1.1" id="Layer_1" xmlns="http://www.w3.org/2000/svg" xmlns:xlink="http://www.w3.org/1999/xlink" x="0px" y="0px"
	 viewBox="0 0 600 600" style="enable-background:new 0 0 600 600;" xml:space="preserve">
<style type="text/css">
	.st0{fill:#EDF1FC;}
	.st1{fill:#526EFF;}
</style>
<g transform="translate(300,300)">
	<path class="st0" d="M138.2-235.9c30.1,30.1,38.2,78.2,70.5,122s88.7,83.6,90.8,120.9s-50,72.5-95.4,104.5
		c-45.4,31.9-83.9,60.9-135.6,95.6c-51.7,34.8-116.6,75.3-162.3,61.3c-45.7-13.9-72.1-82.6-79.7-138.9
		c-7.4-56.3,4.1-100.3-27.7-152.3c-31.7-51.8-106.7-111.8-97.5-140.2s102.3-25.5,166.8-41.6s100.2-51.2,144.1-62.5
		S108.1-266.1,138.2-235.9z"/>
</g>
<path d="M327,376.9c3.7,0,6.8-3,6.8-6.6s-3-6.6-6.8-6.6s-6.8,3-6.8,6.6S323.3,376.9,327,376.9z"/>
<path d="M474.5,117.6H139c-12.2,0-22.3,9.6-22.3,21.4v250.8c0,11.8,10,21.4,22.3,21.4h130.6v7.1c0,11.8-10,21.4-22.3,21.4
	c-20.5,0-37.1,16-37.1,35.6c0,3.9,3.3,7.1,7.4,7.1h178.1c4.1,0,7.4-3.2,7.4-7.1c0-19.7-16.6-35.6-37.1-35.6
	c-5.9,0-11.5-2.2-15.7-6.3c-4.2-4.1-6.5-9.4-6.5-15.1v-7.1h130.6c12.2,0,22.3-9.6,22.3-21.4V139
	C496.8,127.3,486.7,117.6,474.5,117.6z M366.1,453.9c9.9,0,18,6.1,21,14.2H226.4c3-8.1,11.1-14.2,21-14.2H366.1z M336.4,439.6h-59.4
	c4.7-6,7.4-13.4,7.4-21.4v-7.1H329v7.1C329,426.1,331.6,433.5,336.4,439.6z M481.9,389.8c0,3.9-3.3,7.1-7.4,7.1H139
	c-4.1,0-7.4-3.2-7.4-7.1v-35.6h350.3V389.8z M163.5,339.9V160.4H450v179.5H163.5z M481.9,339.9h-17.1V153.3c0-3.9-3.3-7.1-7.4-7.1
	H156.1c-4.1,0-7.4,3.2-7.4,7.1v186.6h-17.1V139c0-3.9,3.3-7.1,7.4-7.1h335.5c4.1,0,7.4,3.2,7.4,7.1V339.9z"/>
<path class="st1" d="M245.9,200.5h-54.1c-3.7,0-6.8,3-6.8,6.6v66.3c0,3.6,3,6.6,6.8,6.6h54.1c3.7,0,6.8-3,6.8-6.6v-66.3
	C252.7,203.5,249.7,200.5,245.9,200.5z M239.2,266.8h-40.5v-53h40.5V266.8z"/>
<path d="M327,200.5H273c-3.7,0-6.8,3-6.8,6.6v66.3c0,3.6,3,6.6,6.8,6.6H327c3.7,0,6.8-3,6.8-6.6v-66.3
	C333.8,203.5,330.7,200.5,327,200.5z M320.3,266.8h-40.5v-53h40.5V266.8z"/>
<path class="st1" d="M408.1,200.5h-54.1c-3.7,0-6.8,3-6.8,6.6v66.3c0,3.6,3,6.6,6.8,6.6h54.1c3.7,0,6.8-3,6.8-6.6v-66.3
	C414.9,203.5,411.8,200.5,408.1,200.5z M401.4,266.8h-40.5v-53h40.5V266.8z"/>
<path d="M245.9,293.4h-54.1c-3.7,0-6.8,3-6.8,6.6s3,6.6,6.8,6.6h54.1c3.7,0,6.8-3,6.8-6.6S249.7,293.4,245.9,293.4z"/>
<path d="M327,293.4H273c-3.7,0-6.8,3-6.8,6.6s3,6.6,6.8,6.6H327c3.7,0,6.8-3,6.8-6.6S330.7,293.4,327,293.4z"/>
<path d="M408.1,293.4h-54.1c-3.7,0-6.8,3-6.8,6.6s3,6.6,6.8,6.6h54.1c3.7,0,6.8-3,6.8-6.6S411.8,293.4,408.1,293.4z"/>
<path d="M273,376.9h27c3.7,0,6.8-3,6.8-6.6s-3-6.6-6.8-6.6h-27c-3.7,0-6.8,3-6.8,6.6S269.3,376.9,273,376.9z"/>
</svg>
