<?xml version="1.0" encoding="utf-8"?>
<!-- Generator: Adobe Illustrator 21.0.0, SVG Export Plug-In . SVG Version: 6.00 Build 0)  -->
<svg version="1.1" id="Layer_1" xmlns="http://www.w3.org/2000/svg" xmlns:xlink="http://www.w3.org/1999/xlink" x="0px" y="0px"
	 viewBox="0 0 600 600" style="enable-background:new 0 0 600 600;" xml:space="preserve">
<style type="text/css">
	.st0{fill:#EDF1FC;}
	.st1{fill:#526EFF;}
</style>
<g transform="translate(300,300)">
	<path class="st0" d="M110.7-135.3c37.6,55.2,59,106,84.9,168.5s56.2,136.6,28.8,171.3c-27.3,34.9-112.2,30.4-172.1,19.8
		c-60-10.6-95-27.3-146-31.9s-117.9,2.6-136-21.7c-18-24.3,12.9-80.3,22.1-141.3s-3.4-127.4,21.9-184.7
		c25.2-57.4,88.3-105.8,146.8-100.2C19.4-249.9,73.1-190.3,110.7-135.3z"/>
</g>
<path d="M415.8,482.3c4.4,5.5,13.2,3.4,14.6-3.6L502,124.5c0.5-2.5-0.1-5.2-1.8-7.1l0,0l0,0c-2.2-2.6-5.2-2.7-5.2-2.8
	c-1.2-0.2-2.4-0.1-3.7,0.3L103.7,236.4c-7.5,2.3-7.8,13-0.4,15.7l126.9,47.5l-15.7,109.8c0,0.1,0,0.1,0,0.1c-0.8,6.6,6,11.5,12,8.5
	l98.6-49.2L415.8,482.3z M417.6,458c-5.3-6.7-112.1-140.1-117.1-146.4l180.1-165.3L417.6,458z M131.7,244.9l310-97.1l-203.5,137
	L131.7,244.9z M247,299l160-107.7L283.5,304.6l-0.1,0.1c-0.1,0.1-0.2,0.2-0.3,0.3s-0.2,0.2-0.2,0.3c-0.1,0.1-0.2,0.2-0.2,0.2
	c-0.1,0.2-0.2,0.2-0.3,0.4c0,0.1-0.1,0.1-0.1,0.1L236,375.4L247,299z M246.9,389.2l42.8-64.3l24.5,30.6L246.9,389.2z"/>
<path class="st1" d="M73.9,396.5c3.9,3.9,10.2,3.9,14.1,0l66-66c3.9-3.9,3.9-10.2,0-14.1s-10.2-3.9-14.1,0l-66,66
	C70,386.2,70,392.6,73.9,396.5z"/>
<path class="st1" d="M116.9,518.5c3.9,3.9,10.2,3.9,14.1,0l66-66c3.9-3.9,3.9-10.2,0-14.1c-3.9-3.9-10.2-3.9-14.1,0l-66,66
	C113,508.2,113,514.6,116.9,518.5z"/>
<path class="st1" d="M321.9,458.3l-66,66c-3.9,3.9-3.9,10.2,0,14.1c3.9,3.9,10.2,3.9,14.1,0l66-66c3.9-3.9,3.9-10.2,0-14.1
	C332.2,454.4,325.8,454.4,321.9,458.3z"/>
</svg>
