<?xml version="1.0" encoding="utf-8"?>
<!-- Generator: Adobe Illustrator 21.0.0, SVG Export Plug-In . SVG Version: 6.00 Build 0)  -->
<svg version="1.1" id="Layer_1" xmlns="http://www.w3.org/2000/svg" xmlns:xlink="http://www.w3.org/1999/xlink" x="0px" y="0px"
	 viewBox="0 0 600 600" style="enable-background:new 0 0 600 600;" xml:space="preserve">
<style type="text/css">
	.st0{fill:#DFDFFD;}
	.st1{fill:url(#SVGID_1_);}
</style>
<path class="st0" d="M314,237.8c-22.1,155.9,147.7,258.7,119,301c-31.8,46.7-292.3-0.6-373-178c-6-13.2-60.8-138.7,6.7-230.2
	C144.4,25.4,334.2,32.1,364,88C382.7,123.2,325.8,154.6,314,237.8z"/>
<linearGradient id="SVGID_1_" gradientUnits="userSpaceOnUse" x1="273.6915" y1="566.9527" x2="273.6915" y2="55.1844" gradientTransform="matrix(0.9998 2.203668e-02 -2.203668e-02 0.9998 7.7348 -13.983)">
	<stop  offset="0" style="stop-color:#3C9AFE"/>
	<stop  offset="1" style="stop-color:#455BF7"/>
</linearGradient>
<path class="st1" d="M465.3,152.4c3.2,149.1,52.5,200.7,26.8,310.1c-4.7,20-12.7,45.4-34.9,64.5c-21.1,18.1-45.6,22.4-65.6,24.6
	c-86.1,9.5-155.1,17.1-219.5-20.8C71.6,471.6,10.7,318.3,72,190.7c0,0,68.5-142.3,308.6-141.2c23.1,0.1,43.4,4.4,58.8,18
	C465.2,90.3,464.8,128.2,465.3,152.4z"/>
</svg>
