<?xml version="1.0" encoding="utf-8"?>
<!-- Generator: Adobe Illustrator 21.0.0, SVG Export Plug-In . SVG Version: 6.00 Build 0)  -->
<svg version="1.1" id="Layer_1" xmlns="http://www.w3.org/2000/svg" xmlns:xlink="http://www.w3.org/1999/xlink" x="0px" y="0px"
	 viewBox="0 0 750 1334" style="enable-background:new 0 0 750 1334;" xml:space="preserve">
<style type="text/css">
	.st0{fill:#DFDFFD;}
	.st1{fill:#3D8FFC;}
</style>
<path class="st0" d="M420,645c-18,116.7-137.2,108-252,291c-106.3,169.6-97.3,301.8-132,301c-33.4-0.7-48.1-141.7-92-583.5
	C-60.7,606.5-91,56-36,49c16.2-2.1,17.6,46,71.1,104.1C116.9,241.9,188.2,210.2,259,290c56,63.2,27.3,77.9,83.3,175.2
	C398.3,562.4,429.8,581.6,420,645z"/>
<path class="st1" d="M421,652c-8.2,56.2-71.9,56.9-234.4,189.6c-54.4,44.4-81.6,66.6-100.5,93C-13.3,1073.3,48.2,1255,33,1258
	c-17.8,3.5-108.7-243.9-146-606c-33.1-321.7,8.5-614.9,51-618c11.1-0.8,13.7,28.2,53.6,59.1c41.6,32.2,78.7,32.1,79.5,46.5
	c1.3,22.9-91.9,35.4-91.5,55.5c0.5,27.2,170.9,3.1,264.4,102.9c28.4,30.3,8.2,42.5,70.5,146.1C388.3,567,424.4,628.9,421,652z"/>
<circle class="st1" cx="215" cy="915" r="10"/>
<circle class="st1" cx="114" cy="1089" r="8"/>
</svg>
