<?xml version="1.0" encoding="utf-8"?>
<!-- Generator: Adobe Illustrator 21.0.0, SVG Export Plug-In . SVG Version: 6.00 Build 0)  -->
<svg version="1.1" id="Layer_1" xmlns="http://www.w3.org/2000/svg" xmlns:xlink="http://www.w3.org/1999/xlink" x="0px" y="0px"
	 viewBox="0 0 750 1334" style="enable-background:new 0 0 750 1334;" xml:space="preserve">
<style type="text/css">
	.st0{fill:#3D8FFC;}
	.st1{opacity:0.3;fill:#3D8FFC;}
</style>
<ellipse class="st0" cx="526" cy="736" rx="9.2" ry="10"/>
<circle class="st0" cx="470.9" cy="603.5" r="8"/>
<path class="st0" d="M901.4,584.5c0,190.5-92.3,345-206.2,345c-130.2,0-257.3-229.9-206.2-345c26.1-58.8,83.2-51.9,138-133.5
	c70.3-104.7,32.5-199.5,68.2-211.5C746.1,222.4,901.4,388.8,901.4,584.5z"/>
<path class="st1" d="M854.4,566.8c-14.9,118.4-82.8,328.5-195.7,328.5c-122.4,0-244-217.4-195.7-328.5
	c29.3-67.5,99.9-53.7,144.5-144.3c41.1-83.5,10.2-155.6,63.7-192.3c22-15.1,53.2-20.8,78.9-13.2C838.4,243,871.8,428.8,854.4,566.8z
	"/>
<circle class="st1" cx="421.1" cy="1243.7" r="10.1"/>
</svg>
