<?xml version="1.0" encoding="utf-8"?>
<!-- Generator: Adobe Illustrator 21.0.0, SVG Export Plug-In . SVG Version: 6.00 Build 0)  -->
<svg version="1.1" id="Layer_1" xmlns="http://www.w3.org/2000/svg" xmlns:xlink="http://www.w3.org/1999/xlink" x="0px" y="0px"
	 viewBox="0 0 1440 126" style="enable-background:new 0 0 1440 126;" xml:space="preserve">
<style type="text/css">
	.st0{fill:#BAD2FB;enable-background:new    ;}
	.st1{fill:#337DF3;}
</style>
<title>Rectangle 3</title>
<desc>Created with Sketch.</desc>
<path class="st0" d="M1448,37c0.8,8.8-327.9,61.6-735.5,71C367.8,116-27.1,94.4-28,62c-0.3-9.4,33.2-16.9,87-29
	C192.9,2.9,303.8,4.9,487,13.3c27.7,1.3,58.4,2.8,223,11.7c283.8,15.4,280.4,16.2,316,17C1290.8,48.2,1447.5,31,1448,37z"/>
<path class="st1" d="M685.6,38.8C418.7-11.1,170.2,9.9,0,30v96h1440V30C1252.7,52.2,1010,99.4,685.6,38.8z"/>
</svg>
