<?xml version="1.0" encoding="utf-8"?>
<!-- Generator: Adobe Illustrator 21.0.0, SVG Export Plug-In . SVG Version: 6.00 Build 0)  -->
<svg version="1.1" id="Layer_1" xmlns="http://www.w3.org/2000/svg" xmlns:xlink="http://www.w3.org/1999/xlink" x="0px" y="0px"
	 viewBox="0 0 1366 400" style="enable-background:new 0 0 1366 400;" xml:space="preserve">
<style type="text/css">
	.st0{fill:#4355FF;}
	.st1{fill:#526EFF;}
	.st2{fill:#4A5EFF;}
	.st3{fill:#4961FF;}
	.st4{fill:none;}
	.st5{fill:#4562DB;}
</style>
<g>
	<path class="st0" d="M181.7,206.4c-40.3,8-80,19.2-118.5,33.4c-18.5,6.9-36.8,14.4-54.7,22.6l-0.4,63.4l816.7,4.7
		c-53.5-32.7-110.4-61.5-172-84.6C503.7,190.1,338.4,175.2,181.7,206.4z"/>
	<path class="st1" d="M1366.8,505.5l-1.3-315.7c-47.4,13.7-96.8,20.5-146.2,21c-87.8,1-173.6-15.9-255.7-39c-2.6-0.7-5-1.5-7.6-2.2
		C799.2,124.7,643.4,63.5,475.4,30.3C315.9-1.1,154,6.4-0.8,41.6l1.9,469.6L1366.8,505.5L1366.8,505.5z"/>
	<path class="st2" d="M0.7,332l940.9-4c-101.2-66.3-208.4-127.2-331-166.8c-163.9-53.1-341.7-56.7-508.1-14.3
		C67.8,155.7,33.4,166.7,0,179.7L0.7,332L0.7,332z"/>
	<path class="st3" d="M1210.8,323.3c-83.8-4.9-163.9-29.9-240.3-61.4c-2.4-0.9-4.7-2-7.1-2.9c-146.2-61.4-303-126.2-464.2-168.2
		C329.3,46.6,164.7,47-0.7,95.6l1.5,455.9l1365.9-4.6l-0.8-244.7C1315.5,319.3,1263,326.3,1210.8,323.3z"/>
</g>
<circle class="st4" cx="1060" cy="172.5" r="10"/>
<circle class="st4" cx="990.7" cy="19.2" r="8.7"/>
<circle class="st4" cx="1214" cy="100.5" r="9"/>
<circle class="st4" cx="1153" cy="49.5" r="9"/>
<circle class="st1" cx="338.2" cy="253.9" r="12.3"/>
<circle class="st5" cx="341.5" cy="254.8" r="8.9"/>
<circle class="st1" cx="1285.9" cy="166.5" r="6"/>
<ellipse class="st5" cx="1297.5" cy="164" rx="11.6" ry="10.9"/>
<circle class="st1" cx="859.3" cy="34.2" r="6.3"/>
<circle class="st5" cx="859.3" cy="31.1" r="3.1"/>
</svg>
