<?xml version="1.0" encoding="utf-8"?>
<!-- Generator: Adobe Illustrator 21.0.0, SVG Export Plug-In . SVG Version: 6.00 Build 0)  -->
<svg version="1.1" id="Layer_1" xmlns="http://www.w3.org/2000/svg" xmlns:xlink="http://www.w3.org/1999/xlink" x="0px" y="0px"
	 viewBox="0 0 1366 599" style="enable-background:new 0 0 1366 599;" xml:space="preserve">
<style type="text/css">
	.st0{fill:#4355FF;}
	.st1{fill:#4961FF;}
	.st2{fill:#526EFF;}
	.st3{fill:none;}
	.st4{fill:#4562DB;}
	.st5{fill:none;stroke:#3B4BFF;stroke-width:2;stroke-miterlimit:10;}
	.st6{fill:none;stroke:#000000;stroke-width:2;stroke-miterlimit:10;}
</style>
<g>
	<path class="st0" d="M-67-60.1"/>
	<path class="st1" d="M0.1,0C-4.7,24.5-9.5,64.5,0,112c7.8,39,13,73.9,40,96c31.5,25.8,57.2,6.6,90.5,23.2
		C201,266.4,159.9,389.9,220,439c57.2,46.7,136.6-30.7,272-37c185.1-8.6,243.7,126.6,425.4,164.6c98.1,20.5,244.9,15.3,448.6-110.5
		V0H0.1z"/>
	<path class="st2" d="M-72,112"/>
	<path class="st2" d="M54.4,147.9c15,14,27.5,16.3,42.6,37.1c27.8,38.2,8.4,62.1,32,93c19.3,25.2,37.3,16.6,85,51
		c29.1,21,32.8,36,48,44c75.4,39.6,220.5-80.5,358-58.1c41.4,6.8,97.1,29,157,98.1c107.9,124.2,210,130.5,247.5,120.6
		c106.1-27.9,102.9-244.5,186.5-253.6c42.1-4.6,82,46.2,107,85c-13.3-28.9-52.6-123.6-21-236c16.9-60.3,47.8-102.8,68.9-127.1
		c-93.3-0.1-186.6-0.3-279.9-0.4C730.3,1,374.7,0.5,19,0C11,86.4,31.9,127,54.4,147.9z"/>
</g>
<circle class="st3" cx="1060" cy="272" r="10"/>
<circle class="st3" cx="990.7" cy="118.7" r="8.7"/>
<circle class="st3" cx="1214" cy="200" r="9"/>
<circle class="st3" cx="1153" cy="149" r="9"/>
<circle class="st2" cx="338.2" cy="473" r="12.3"/>
<circle class="st4" cx="341.5" cy="473" r="8.9"/>
<circle class="st5" cx="808.5" cy="292" r="7.5"/>
<circle class="st6" cx="778.8" cy="669.8" r="8.8"/>
<circle class="st0" cx="1145" cy="248" r="11"/>
<path class="st2" d="M49,201"/>
</svg>
