<?xml version="1.0" encoding="utf-8"?>
<!-- Generator: Adobe Illustrator 21.0.0, SVG Export Plug-In . SVG Version: 6.00 Build 0)  -->
<svg version="1.1" id="Layer_1" xmlns="http://www.w3.org/2000/svg" xmlns:xlink="http://www.w3.org/1999/xlink" x="0px" y="0px"
	 viewBox="0 0 1440 126" style="enable-background:new 0 0 1440 126;" xml:space="preserve">
<style type="text/css">
	.st0{fill:#BAD2FB;enable-background:new    ;}
	.st1{fill:#337DF3;}
	.st2{fill:#1D6FF2;}
</style>
<path class="st0" d="M1440,75c0,22.7-504.1,61.8-711.5,30c-14.9-2.3-69.4-11.2-143.5-13c-91.6-2.2-157.8,7.9-190,12
	C206.6,128.2,7.2,101.2,7,90C6.7,74.8,374.4,48.5,728.5,45C1027.2,42.1,1440,54.2,1440,75z"/>
<title>Rectangle 3</title>
<desc>Created with Sketch.</desc>
<path class="st1" d="M748,64c184.8,14,217.1,47.5,385.5,54.8c130.9,5.7,238-9,306.5-21.8V1H0v96c83.3-6.4,205.1-15.1,353-23
	C559.2,63,664,57.6,748,64z"/>
<path class="st2" d="M325,15"/>
</svg>
