<?xml version="1.0" encoding="utf-8"?>
<!-- Generator: Adobe Illustrator 21.0.0, SVG Export Plug-In . SVG Version: 6.00 Build 0)  -->
<svg version="1.1" id="Layer_1" xmlns="http://www.w3.org/2000/svg" xmlns:xlink="http://www.w3.org/1999/xlink" x="0px" y="0px"
	 viewBox="0 0 600 600" style="enable-background:new 0 0 600 600;" xml:space="preserve">
<style type="text/css">
	.st0{fill:#EDF1FC;}
	.st1{fill:#526EFF;}
</style>
<g transform="translate(300,300)">
	<path class="st0" d="M195.4-246.8c43.7,2.8,60.8,68.8,76.3,127.7c15.4,58.8,29.1,110.5,18.5,156.9c-10.5,46.2-45.5,86.9-82.6,124
		c-36.9,37.2-75.9,70.7-115.2,63.1c-39.2-7.4-78.6-56-141.4-59.5c-62.8-3.6-148.9,37.7-164,21c-15.1-16.9,40.7-92,30.5-158.2
		c-10.2-66.2-86.5-123.6-102.4-181.3c-15.8-57.6,28.7-115.8,88.1-111.6c59.4,4,133.6,70.1,205.7,72.9
		C81.3-189,151.7-249.5,195.4-246.8z"/>
</g>
<path class="st1" d="M340.4,156.2c-3.1,0-5.6,2.9-5.6,6.3s2.5,6.3,5.6,6.3s5.6-2.9,5.6-6.3S343.5,156.2,340.4,156.2z"/>
<path d="M385.5,156.2H363c-3.1,0-5.6,2.9-5.6,6.3s2.5,6.3,5.6,6.3h22.6c3.1,0,5.6-2.9,5.6-6.3S388.6,156.2,385.5,156.2z"/>
<path d="M430.7,156.2h-22.6c-3.1,0-5.6,2.9-5.6,6.3s2.5,6.3,5.6,6.3h22.6c3.1,0,5.6-2.9,5.6-6.3S433.8,156.2,430.7,156.2z"/>
<path d="M447.8,130.5H169.7c-10.2,0-18.5,9-18.5,20v301.8c0,11,8.3,20,18.5,20h278.1c10.2,0,18.5-9,18.5-20V150.6
	C466.3,139.5,458,130.5,447.8,130.5z M454,452.4c0,3.7-2.8,6.7-6.2,6.7H169.7c-3.4,0-6.2-3-6.2-6.7V197.3H454V452.4z M454,184H163.6
	v-33.4c0-3.7,2.8-6.7,6.2-6.7h278.1c3.4,0,6.2,3,6.2,6.7V184z"/>
<path class="st1" d="M212.9,274.2H416c3.1,0,5.6-2.9,5.6-6.3v-38.1c0-3.5-2.5-6.3-5.6-6.3H212.9c-3.1,0-5.6,2.9-5.6,6.3v38.1
	C207.2,271.3,209.8,274.2,212.9,274.2z M218.5,236.1h191.9v25.4H218.5V236.1z"/>
<path d="M212.9,415.7h67.7c3.1,0,5.6-2.9,5.6-6.3V307.8c0-3.5-2.5-6.3-5.6-6.3h-67.7c-3.1,0-5.6,2.9-5.6,6.3v101.5
	C207.2,412.8,209.8,415.7,212.9,415.7z M218.5,314.2h56.4V403h-56.4V314.2z"/>
<path class="st1" d="M416,301.5H314.4c-0.1,0-0.1,0-0.2,0c-3.1,0.1-5.5,3-5.5,6.3v101.5c0,0.1,0,0.1,0,0.1c0.1,3.5,2.6,6.2,5.6,6.2
	H416c3,0,5.6-2.7,5.6-6.2c0-0.1,0-0.1,0-0.1V307.8C421.6,304.3,419.1,301.5,416,301.5z M401.2,314.2l-35.9,35.9l-35.9-35.9H401.2z
	 M320.1,322l36.6,36.6l-36.6,36.6V322z M329.3,403l35.9-35.9l35.9,35.9H329.3z M410.4,395.2l-36.6-36.6l36.6-36.6V395.2z"/>
</svg>
