<?xml version="1.0" encoding="utf-8"?>
<!-- Generator: Adobe Illustrator 21.0.0, SVG Export Plug-In . SVG Version: 6.00 Build 0)  -->
<svg version="1.1" id="Layer_1" xmlns="http://www.w3.org/2000/svg" xmlns:xlink="http://www.w3.org/1999/xlink" x="0px" y="0px"
	 viewBox="0 0 512 512" style="enable-background:new 0 0 512 512;" xml:space="preserve">
<style type="text/css">
	.st0{fill:#526EFF;}
</style>
<path class="st0" d="M302,40c-5.5,0-10,4.5-10,10s4.5,10,10,10s10-4.5,10-10S307.5,40,302,40z"/>
<path d="M382,40h-40c-5.5,0-10,4.5-10,10s4.5,10,10,10h40c5.5,0,10-4.5,10-10S387.5,40,382,40z"/>
<path d="M462,40h-40c-5.5,0-10,4.5-10,10s4.5,10,10,10h40c5.5,0,10-4.5,10-10S467.5,40,462,40z"/>
<path d="M482,0H30C13.5,0,0,13.5,0,30v452c0,16.5,13.5,30,30,30h452c16.5,0,30-13.5,30-30V30C512,13.5,498.5,0,482,0z M492,482
	c0,5.5-4.5,10-10,10H30c-5.5,0-10-4.5-10-10V100h472V482z M492,80H20V30c0-5.5,4.5-10,10-10h452c5.5,0,10,4.5,10,10V80z"/>
<path class="st0" d="M76,226h360c5.5,0,10-4.5,10-10v-60c0-5.5-4.5-10-10-10H76c-5.5,0-10,4.5-10,10v60C66,221.5,70.5,226,76,226z
	 M86,166h340v40H86V166z"/>
<path d="M76,449h120c5.5,0,10-4.5,10-10V279c0-5.5-4.5-10-10-10H76c-5.5,0-10,4.5-10,10v160C66,444.5,70.5,449,76,449z M86,289h100
	v140H86V289z"/>
<path class="st0" d="M436,269H256c-0.1,0-0.2,0-0.3,0c-5.5,0.2-9.7,4.7-9.7,10v160c0,0.1,0,0.1,0,0.2c0.1,5.5,4.6,9.8,10,9.8h180
	c5.4,0,9.9-4.3,10-9.8c0-0.1,0-0.1,0-0.2V279C446,273.5,441.5,269,436,269z M409.7,289L346,345.6L282.3,289H409.7z M266,301.3
	l64.9,57.7L266,416.7V301.3z M282.3,429l63.7-56.6l63.7,56.6H282.3z M426,416.7L361.1,359l64.9-57.7V416.7z"/>
</svg>
